<?xml version="1.0" encoding="utf-8"?>
<!-- Generator: Adobe Illustrator 18.1.0, SVG Export Plug-In . SVG Version: 6.00 Build 0)  -->
<svg version="1.1" id="Layer_1" xmlns="http://www.w3.org/2000/svg" xmlns:xlink="http://www.w3.org/1999/xlink" x="0px" y="0px"
	 viewBox="0 0 294.8 175.7" enable-background="new 0 0 294.8 175.7" xml:space="preserve">
<path fill="#FFFFFF" d="M251.6,89.4H245c0.8-2.9,1.2-5.9,1.2-9c0-19.1-15.5-34.6-34.6-34.6c-8,0-15.4,2.7-21.3,7.3
	c-10-30.9-39-53.2-73.2-53.2C74.6,0,40.2,34.5,40.2,76.9c0,4.3,0.4,8.5,1,12.5c-22.8,1-41.2,20-41.2,43.1v0
	c0,23.7,19.4,43.1,43.1,43.1h208.5c23.7,0,43.1-19.4,43.1-43.1v0C294.8,108.8,275.3,89.4,251.6,89.4z"/>
</svg>
