<?xml version="1.0" encoding="utf-8"?>
<!-- Generator: Adobe Illustrator 18.1.0, SVG Export Plug-In . SVG Version: 6.00 Build 0)  -->
<svg version="1.1" id="Layer_1" xmlns="http://www.w3.org/2000/svg" xmlns:xlink="http://www.w3.org/1999/xlink" x="0px" y="0px"
	 viewBox="0 0 247.9 67" enable-background="new 0 0 247.9 67" xml:space="preserve">
<path d="M14.1,13.6c0-1.5-0.3-1.9-0.3-2.5c0-0.8,0.9-1.3,2-1.3c2.5,0,4.3,1.5,4.3,3.4v25.2C25.3,37.8,35.9,32,35.9,19
	c0-5.9-3.6-13.2-12.6-13.2C10.9,5.8,5.9,14,5.9,23.4c0,6.8,2.8,9.2,2.9,9.4c0.8-0.2,1.2,0.3,1.2,1.1c0,1.4-2.1,6.5-4.3,4.8
	C4.4,37.5,0,32.9,0,23.9C0,9.4,9.5,0,23.2,0c11.3,0,18.6,7.9,18.6,18.8c0,13.4-10.4,23.2-21.8,25.4v21c0,1.3-1,1.8-2.2,1.8
	c-1.8,0-3.9-1.1-3.9-2.2V13.6z"/>
<path d="M67,42.8c0.3-1.6,1.1-2.3,1.9-2.3c1.2,0,2.7,1.7,2.7,3.2c0,0.1,0,0.2-0.1,0.5c-1.3,5.1-4.4,12-11,12c-2.7,0-4.8-1.3-5.9-3.2
	c-1.5,1.8-3.7,3.2-6.6,3.2c-6,0-9.2-5.1-9.2-11.7c0-12.9,9-20.8,18.4-20.8c2.1,0,3.6,1.2,3.6,3.2c0,1.3-0.2,1.8-1,1.8
	c-0.7,0-1.5-0.2-2.2-0.2c-5.9,0-12.7,5-12.7,16.1c0,4,1.7,6.3,4.4,6.3c2.1,0,3.5-1.9,4.3-4V35.2c0-1.5-0.3-1.9-0.3-2.5
	c0-0.8,0.9-1.3,2-1.3c2.5,0,4.2,1.5,4.2,3.4v12.7c0,1.7,0.8,3.6,2.6,3.6C64.9,51.1,66.3,46.2,67,42.8z"/>
<path d="M67.3,28.3c0-1.5-0.3-1.9-0.3-2.5c0-0.8,0.9-1.3,2-1.3c2.5,0,4.2,1.5,4.2,3.4v3.5c2.1-4.3,4.9-7.6,8.6-7.6
	c5.2,0,6.4,4.2,6.4,7.8v16c0,0.7,0,3.6,2,3.6c3.1,0,4.5-4.9,5.2-8.3c0.3-1.6,1.1-2.3,1.9-2.3c1.2,0,2.7,1.7,2.7,3.2
	c0,0.1,0,0.2-0.1,0.5c-1.3,5.1-4.4,12-11,12c-4.1,0-6.5-3.3-6.5-7.3V33.3c0-2.4-0.2-4.4-1.6-4.4c-2.2,0-7,6.6-7.6,12.7v11.3
	c0,1.5,0.1,3.3-2.2,3.3c-1.5,0-3.7-0.5-3.7-3.4V28.3z"/>
<path d="M127.8,43.5c-0.9,4.2-4.1,7.6-9.3,7.6c-1.4,0-2.6-0.2-3.8-0.5c-1.9,3.3-4.9,5.6-9.3,5.6c-7.8,0-11.3-6.6-11.3-14.4
	c0-11.3,6.2-18.2,7.9-18.2c2,0,3.6,4.1,1.5,5.4c-1.2,1.9-3.6,4.7-3.6,12.4c0,6.5,2.5,9.7,5.6,9.7c2.2,0,3.6-1.2,4.6-2.9
	c-3.6-3.1-5.6-8.2-5.6-13.7c0-4.9,2.1-9,6.3-9c3.6,0,6.6,5.5,6.6,13c0,2.9-0.3,5.7-1.1,8.3c0.5,0.2,1,0.2,1.5,0.2
	c3.3,0,5.1-2.5,5.6-5.6C123.7,39.5,128.8,39.2,127.8,43.5z M111.6,43.2c0.2-1.2,0.2-2.4,0.2-3.6c0-5.3-0.2-9.1-1.9-9.1
	c-0.8,0-1.3,1.2-1.3,3.6C108.7,37.6,109.8,40.8,111.6,43.2z"/>
<path d="M132.3,47.4c0-4.9,1.4-10.4,3.9-17.1h-5.9h-0.8c-0.1,3-0.5,9.7-1.9,14.2c-1,3.2-5,0.5-4.3-2.2c0.8-3.1,1.2-9.5,1.2-13.4
	c-1.9-1.1-3.3-2.7-3.3-4.9c0-2.2,1.9-3.6,3.9-3.6c1.9,0,4,0.9,4.9,4.1c2.5,0.3,3.3,0.3,4.1,0.3h4c0.9,0,4,2.5,3.7,4.3
	c0,0.9-3.5,10-3.5,17.8c0,2.2,1,4.2,3.1,4.2c3.6,0,4.9-4.9,5.6-8.3c0.3-1.6,1.1-2.3,1.9-2.3c1.2,0,2.7,1.7,2.7,3.2
	c0,0.2-0.1,0.4-0.1,0.5c-1.4,5.1-4.4,12-11,12C136.6,56.2,132.3,54.2,132.3,47.4z"/>
<path d="M174.1,42.8c0.3-1.6,1.1-2.3,1.9-2.3c1.2,0,2.7,1.7,2.7,3.2c0,0.1,0,0.2-0.1,0.5c-1.3,5.1-4.4,12-11,12
	c-2.7,0-4.8-1.3-5.9-3.2c-1.5,1.8-3.7,3.2-6.6,3.2c-6,0-9.2-5.1-9.2-11.7c0-12.9,9-20.8,18.4-20.8c2.1,0,3.6,1.2,3.6,3.2
	c0,1.3-0.2,1.8-1,1.8c-0.7,0-1.5-0.2-2.2-0.2c-5.9,0-12.7,5-12.7,16.1c0,4,1.7,6.3,4.4,6.3c2.1,0,3.5-1.9,4.3-4V35.2
	c0-1.5-0.3-1.9-0.3-2.5c0-0.8,0.9-1.3,2-1.3c2.5,0,4.2,1.5,4.2,3.4v12.7c0,1.7,0.8,3.6,2.6,3.6C172.1,51.1,173.4,46.2,174.1,42.8z"
	/>
<path d="M209.5,56.2c-4.1,0-6.5-3.3-6.5-7.3V33.3c0-2.4-0.2-4.4-1.5-4.4c-2.1,0-6.5,6.6-6.9,12.7v11.3c0,1.5,0.1,3.3-2.2,3.3
	c-1.5,0-3.7-0.5-3.7-3.4V33.3c0-2.4-0.2-4.4-1.5-4.4c-2.1,0-6.5,6.6-6.9,12.7v11.3c0,1.5,0.1,3.3-2.2,3.3c-1.5,0-3.7-0.5-3.7-3.4
	V28.3c0-1.5-0.3-1.9-0.3-2.5c0-0.8,0.9-1.3,2-1.3c2.5,0,4.2,1.5,4.2,3.4v3.2c2-4.2,4.7-7.4,8.2-7.4c4.6,0,5.9,3.8,6.1,7.3
	c1.9-4.1,4.6-7.3,8.1-7.3c5,0,6.2,4.2,6.2,7.8v16c0,0.7,0,3.6,2,3.6c3.1,0,4.5-4.9,5.2-8.3c0.3-1.6,1.1-2.3,1.9-2.3
	c1.2,0,2.7,1.7,2.7,3.2c0,0.1,0,0.2-0.1,0.5C219.1,49.3,216.1,56.2,209.5,56.2z"/>
<path d="M243.4,42.8c0.3-1.6,1.1-2.3,1.9-2.3c1.2,0,2.7,1.7,2.7,3.2c0,0.1,0,0.2-0.1,0.5c-1.3,5.1-4.4,12-11,12
	c-2.7,0-4.8-1.3-5.9-3.2c-1.5,1.8-3.7,3.2-6.6,3.2c-6,0-9.2-5.1-9.2-11.7c0-12.9,9-20.8,18.4-20.8c2.1,0,3.6,1.2,3.6,3.2
	c0,1.3-0.2,1.8-1,1.8c-0.7,0-1.5-0.2-2.2-0.2c-5.9,0-12.7,5-12.7,16.1c0,4,1.7,6.3,4.4,6.3c2.1,0,3.5-1.9,4.3-4V35.2
	c0-1.5-0.3-1.9-0.3-2.5c0-0.8,0.9-1.3,2-1.3c2.5,0,4.2,1.5,4.2,3.4v12.7c0,1.7,0.8,3.6,2.6,3.6C241.3,51.1,242.7,46.2,243.4,42.8z"
	/>
</svg>
