<?xml version="1.0" encoding="utf-8"?>
<!-- Generator: Adobe Illustrator 18.1.0, SVG Export Plug-In . SVG Version: 6.00 Build 0)  -->
<svg version="1.1" id="Layer_1" xmlns="http://www.w3.org/2000/svg" xmlns:xlink="http://www.w3.org/1999/xlink" x="0px" y="0px"
	 viewBox="0 0 771.6 87.9" enable-background="new 0 0 771.6 87.9" xml:space="preserve">
<g>
	<path d="M0,75.6c3.6-0.2,5.5-0.3,9.1-0.6c0-20.7,0-41.5,0-62.2c-3.6-0.2-5.5-0.3-9.1-0.6C0,7.4,0,4.9,0,0
		c12.1,1.1,24.1,2.1,36.2,3.1c5.5,0.4,9.8,1.5,12.7,3c4.1,2.1,7.4,5.3,9.9,9.5c2.5,4.2,3.7,9,3.7,14.4c0,5.5-1.3,10.4-3.9,14.8
		c-2.6,4.3-6.1,7.4-10.5,9.1c-3,1.1-6.8,1.7-11.6,1.9c-5.4,0.1-8.1,0.2-13.5,0.3c0,7.2,0,10.8,0,18.1c3.7-0.2,5.5-0.3,9.2-0.5
		c0,4.6,0,6.9,0,11.5C21.5,86,10.7,86.9,0,87.9C0,82.9,0,80.5,0,75.6z M23,43.7c4.7,0,7,0,11.7,0c3,0,5.6-0.5,7.7-1.6
		c4.1-2.1,6.2-6.2,6.1-12.4c0-5.7-1.8-9.7-5.5-12.2c-2-1.4-4.8-2.2-8.2-2.4c-4.7-0.3-7.1-0.4-11.8-0.7C23,24.2,23,33.9,23,43.7z"/>
	<path d="M87.7,80.9c0-4.1,0-6.2,0-10.3c2.8-0.1,4.1-0.2,6.9-0.3c7.3-20.5,14.9-40.9,22.7-61.2c6.3,0.4,9.5,0.6,15.9,1
		c7.3,19.2,14.8,38.4,22.7,57.4c2.8-0.1,4.1-0.2,6.9-0.3c0,3.6,0,5.4,0,9c-9.5,0.5-18.9,1.1-28.4,1.7c0-3.8,0-5.7,0-9.5
		c3-0.1,4.5-0.2,7.4-0.3c-1.9-5-2.8-7.5-4.7-12.6c-9.5,0.2-14.3,0.3-23.9,0.5c-1.9,5.4-2.8,8.1-4.7,13.6c3-0.1,4.5-0.2,7.4-0.4
		c0,3.9,0,5.9,0,9.8C106.5,79.6,97.1,80.2,87.7,80.9z M116.4,46.1c7,0,10.4,0,17.4-0.1c-2.8-7.7-8.2-22.7-8.6-24
		C122.4,29.8,119.3,38.2,116.4,46.1z"/>
	<path d="M188.9,74.7c0-3.4,0-5.2,0-8.6c3.4-0.1,5.1-0.2,8.6-0.3c0-14.6,0-29.2,0-43.8c-3.4-0.1-5.1-0.2-8.6-0.3c0-3.4,0-5.2,0-8.6
		c9.2,0.5,13.8,0.7,23,1.1c10.3,12.8,20.9,25.4,31.8,37.8c0.3,0.4,1.7,1.9,2.6,3c0-11.1,0-20.3,0-31.4c-3.8-0.1-5.6-0.2-9.4-0.3
		c0-3.2,0-4.8,0-8c10.8,0.4,21.6,0.8,32.5,1.2c0,3.1,0,4.6,0,7.6c-3.6-0.1-5.5-0.1-9.1-0.2c0,15.9,0,31.8,0,47.6
		c-5.6,0.2-8.4,0.3-13.9,0.5c-10.9-11.9-33.2-38.2-34.4-39.6c0,9.8,0,23.1,0,32.8c3.6-0.1,5.3-0.2,8.9-0.3c0,3.3,0,4.9,0,8.2
		C210.2,73.7,199.5,74.2,188.9,74.7z"/>
	<path d="M291.7,43.6c0-7.6,3.8-14,11-19.1c7.3-5.1,19.3-7.3,27.8-7c8.6,0.2,20.4,2.8,27.8,7.9c7.2,5,11,11,11,18.2
		c0,7.3-3.8,13.5-11,18.7c-7.3,5.2-19.2,7.9-27.8,8.1c-8.5,0.2-20.5-2-27.8-7.2C295.5,58,291.7,51.4,291.7,43.6z M305.6,43.6
		c0,5.4,2.4,9.9,7.3,13.4c4.8,3.6,10.7,5.2,17.6,5.1c6.9-0.1,12.8-2,17.6-5.5s7.3-7.9,7.3-13c0-4.9-2.4-9-7.3-12.5
		c-4.8-3.4-10.7-5.2-17.6-5.3c-6.9-0.1-12.8,1.5-17.6,4.9C308,34.1,305.6,38.4,305.6,43.6z"/>
	<path d="M388.1,68.6c0-2.8,0-4.1,0-6.9c3.6,0,5.5,0,9.1,0.1c0-11.9,0-23.8,0-35.8c-3.6,0-5.5,0.1-9.1,0.1c0-2.8,0-4.1,0-6.9
		c11.1-0.1,22.3-0.3,33.4-0.5c6-0.1,10.8,0.1,14.4,0.8c4.4,0.9,7.8,2.5,10.3,4.8c2.4,2.3,3.7,5.2,3.7,8.7c0,3.6-1.3,6.6-3.8,9.1
		c-2.5,2.5-6,4.2-10.5,5.2c0,0.1,0,0.1,0,0.1c0.5,0.3,0.7,0.4,1.2,0.7c1.2,0.8,2,1.5,2.4,2c3.5,4.3,5.2,6.4,8.7,10.7
		c0.9,1.1,2.7,1.7,5.2,1.7c1,0,1.5,0,2.4,0c0,2.9,0,4.3,0,7.2c-3.5-0.1-5.3-0.1-8.8-0.2c-3.1-0.1-5.3-0.4-6.7-1
		c-1.4-0.6-2.7-1.6-3.9-3.1c-4.3-5.3-6.5-7.9-10.8-13.2c-0.9-1-1.8-1.7-2.7-2c-1-0.4-2.5-0.5-4.6-0.6c-2.8,0-4.2,0-6.9,0
		c0,4.9,0,7.3,0,12.2c3.5,0,5.3,0.1,8.8,0.1c0,2.8,0,4.2,0,7C409.3,68.9,398.7,68.7,388.1,68.6z M411.1,42.4c5,0,7.5,0,12.6,0
		c3.8,0,6.8-0.7,8.9-2.2c2.2-1.5,3.3-3.5,3.3-6.2c0-3.6-2-5.9-6-6.9c-1.9-0.6-4.8-0.9-8.6-0.8c-4.1,0.1-6.1,0.1-10.2,0.1
		C411.1,32.7,411.1,36,411.1,42.4z"/>
	<path d="M475.4,70.4c0-3,0-4.4,0-7.4c2.8,0.1,4.2,0.1,6.9,0.1c7.7-15.5,15.3-31.1,22.7-46.7c6.3-0.2,9.5-0.3,15.9-0.6
		c7.7,16.2,15.3,32.5,22.7,48.9c2.8,0.1,4.1,0.1,6.9,0.2c0,3.3,0,4.9,0,8.2c-9.5-0.4-18.9-0.8-28.4-1.2c0-3.1,0-4.7,0-7.8
		c3,0.1,4.5,0.1,7.4,0.2c-1.9-4.4-2.8-6.5-4.7-10.8c-9.5-0.1-14.3-0.2-23.9-0.3c-1.9,4.1-2.8,6.2-4.7,10.3c3,0.1,4.5,0.1,7.4,0.2
		c0,3.1,0,4.6,0,7.7C494.3,71,484.9,70.7,475.4,70.4z M504.2,45.6c7,0,10.5,0,17.4,0c-2.9-6.4-8.2-18.3-8.7-19.5
		C512.6,27.2,507.1,39.4,504.2,45.6z"/>
	<path d="M574.7,74.3c0-3.4,0-5.1,0-8.5c3.6,0.1,5.4,0.2,8.9,0.3c1.5-14.9,3-29.7,4.5-44.6c-3.7,0.1-5.5,0.2-9.2,0.3
		c0-3.4,0-5.1,0-8.5c9.8-0.5,14.8-0.7,24.6-1.3c5.7,12,11.3,24,16.8,36.1c0.3,0.5,0.7,1.9,1.4,4c0.2,0.6,0.2,0.9,0.4,1.5
		c0.1,0,0.1,0,0.2,0c0.2-0.6,0.3-0.9,0.5-1.5c0.5-1.7,1-3,1.5-4C630,35.4,635.5,22.7,641,9.8c9.9-0.6,14.9-0.9,24.9-1.6
		c0,4,0,6,0,10c-3.6,0.2-5.4,0.3-9,0.4c1.4,16.9,2.9,33.9,4.3,50.8c3.6,0.2,5.4,0.3,8.9,0.4c0,4,0,6,0,10c-10.3-0.7-20.6-1.4-30.9-2
		c0-3.8,0-5.7,0-9.5c3.4,0.2,5.1,0.2,8.4,0.4c-1-11.5-2.1-23.1-3.1-34.6c-0.1-0.9-0.2-2.3-0.3-4.1c-0.5,1.1-1.1,2.9-1.5,3.8
		c-4.8,10.3-9.6,20.6-14.4,30.9c-4.8-0.2-7.1-0.3-11.9-0.4c-4.8-10-9.6-19.9-14.5-29.8c-0.3-0.9-0.6-1.5-1.5-3.5
		c-0.1,1.6-0.2,2.9-0.3,3.8c-0.9,10.6-1.8,21.2-2.8,31.8c3.4,0.1,5.1,0.2,8.5,0.3c0,3.6,0,5.4,0,8.9C595.4,75.4,585,74.8,574.7,74.3
		z"/>
	<path d="M696.7,81.8c0-4.2,0-6.3,0-10.6c2.8,0.1,4.1,0.2,6.9,0.4c7.9-22.5,15.3-45.1,22.6-67.8c6.3-0.5,9.5-0.8,15.8-1.3
		c7.8,24.1,15.3,48.3,22.6,72.6c2.8,0.2,4.1,0.3,6.9,0.4c0,4.9,0,7.4,0,12.3c-9.4-0.8-18.9-1.6-28.3-2.4c0-4.6,0-7,0-11.6
		c3,0.2,4.5,0.3,7.4,0.4c-1.9-6.5-2.8-9.7-4.7-16.1c-9.5-0.3-14.3-0.4-23.8-0.7c-1.9,6-2.8,9-4.7,14.8c3,0.2,4.5,0.3,7.4,0.4
		c0,4.5,0,6.7,0,11.2C715.5,83.2,706.1,82.5,696.7,81.8z M725.4,46.4c7,0,10.4,0.1,17.4,0.1c-2.8-9.4-4.3-14.1-7.1-23.2
		c-0.5-2-0.7-3-1.1-5c-0.1-1.1-0.2-1.8-0.2-2.1c-0.1,0-0.2,0-0.4,0c-0.1,0.8-0.2,1.3-0.3,2.1c-0.2,0.9-0.2,1.4-0.4,2.3
		c-0.2,1.1-0.4,2.1-0.6,2.8C729.8,32.7,728.3,37.3,725.4,46.4z"/>
</g>
</svg>
